<?xml version="1.0" encoding="UTF-8" standalone="no"?>
<!-- Created with Inkscape (http://www.inkscape.org/) -->

<svg
   xmlns:dc="http://purl.org/dc/elements/1.1/"
   xmlns:cc="http://creativecommons.org/ns#"
   xmlns:rdf="http://www.w3.org/1999/02/22-rdf-syntax-ns#"
   xmlns:svg="http://www.w3.org/2000/svg"
   xmlns="http://www.w3.org/2000/svg"
   xmlns:sodipodi="http://sodipodi.sourceforge.net/DTD/sodipodi-0.dtd"
   xmlns:inkscape="http://www.inkscape.org/namespaces/inkscape"
   width="33.231998mm"
   height="33.231998mm"
   viewBox="0 0 33.231998 33.231997"
   version="1.1"
   id="svg8"
   inkscape:version="0.92.5 (2060ec1f9f, 2020-04-08)"
   sodipodi:docname="longisland.svg">
  <defs
     id="defs2">
	
	

	
	
	
	
	
	
	
	
	
	
	
	
	
	
	
	
	
	
	
	
	

	
	
	
	
	
	
	
	
	
	
	
	
	
	
	
	
	
	
	
	
	
	
	
	
	
	
	
	
	
	
	
	
	
	
	
	
	
	
	
	
	
	
	
	
	
	
	
	
	
	
	
	
	
	
	
	
	
	
	
	
	
	
	
	
	
	
	
	
	
	
	
	
	
	
	
	
	
	
	
	
	
	
	
	
	
	
	
	
	
	
	
	
	
	
	
	
	
	
	
	
	
	
	
	
	
	
	
	
	
	
	
	
	
	
	
	
	
	
	
	
	
	
	
	
	
	
	
	
	
	
	
	
	
	
	
	
	
	
	
	
	
	
	
	
	
	
	
	
	
	
	
	
	
	
	
	
	
	
	
	
	
	
	
	
	
	
	
	
	
	
	
	
	
	
	
	
	
	
	
	
	
	
	
	
	
	
	
	
	
	
	
	
	
	
	
	
	
	
	
	
	
	
	
	
	
	
	
	
	
	
	
	
	
	
	
	
	
	
	
	
	
	
	
	
	
	
	
	
	
	
	
	
	
	
	
	
	
	
	
	
	
	
	
	
	
	
	
	
	
	
	
	
	
	
	
	
	
	
	
	
	
	
	
	
	
	
	
	
	
	
	
	
	
	
	

	
	
	
	
	
	
	
	
	
	
	
	
	
	
	
	
	
	
	
	
	
	
	
	
	
	
	
	
	
	
	
	
	
	
	
	
	
	
	
	
	
	
	
	
	
	
	
	
	
	
	
	
	
	
	
	
	
	
	
	
	
	
	
	
	
	
	
	
	
	
	
	
	
	
	
	
	
	
	
	
	
	
	
	
	
	
	
	
	
	
	
	
	
	
	
	
	
	
	
	
	
	
	
	
	
	
	
	
	
	
	
	
	
	
	
	
	
	
	
	
	
	
	
	
	
	
	
	
	
	
	
	
	
	
	
	
	
	
	
	
	
	
	
	
	
	
	
	
	
	
	
	
	
	
	
	
	
	
	
	
	
	
	
	
	
	
	
	
	
	
	
	
	
	
	
	
	
	
	
	
	
	
	
	
	
	
	
	
	
	
	
	
	
	
	
	
	
	
	
	
	
	
	
	
	
	
	
	
	
	
	
	
	
	
	
	
	
	
	
	
	
	
	
	
	
	
	
	
	
	
	
	
	
	
	
	
	
	
	
	
	
	
	
	
	
	
	
	
	
	
	
	
	
	
	
	
	
	
	
	
	
	
	
	
	
	
	
	
	
	
	
	
	
	
	
	
	
	
	
	
	
	
	
	
	
	
	
	
	
	
	
	
	
	
	
	
	
	
	
	
	
	
	
	
	
	
	
	
	
	
	
	
	
	
	
	
	
	
	
	
	
	
	
	
	
	
	
	
	
	
	
	
	
	
	
	
	
	
	
	
	
	
	
	
	
	
	
	
	
	
	
	
	
	
	
	
	
	
	
	
	
	
	
	
	
	
	
	
	
	
	
	
	
	
	
	
	
	
	
	
	
	
	
	
	
	
	
	
	
	
	
	
	
	
	
	
	
	
	
	
	
	
	
	
	
	
	
	
	
	
	
	
	
	
	
	
	
	
	
	
	
	
	
	
	
	
	
	
	
	
	
	
	
	
	
	
	
	
	
	
	
	
	
	
	
	
	
	
	
	
	
	
	
	
	
	
	
	
	
	
	
	
	
	
	
	
	
	
	
	
	
	
	
	
	
	
	
	
	
	
	
	
	
	
	
	
	
	
	
	
	
	
	
	
	
	
	
	
	
	
	
	
	
	
	
	
	
	
	
	
	
	
	
	
	
	
	
	
	
	
	
	
	
	
	
	
	
	
	
	
	
	
	
	
	
	
	
	
	
	
	
	
	
	
	
	
	
	
	
	
	
	
	
	
	
	
	
	
	
	
	
	
	
	
	
	
	
	
	
	
	
	
	
	
	
	
	
	
	
	
	
	
	
	
	
	
	
	
	
	
	
	
	
	
	
	
	
	
	
	
	
	
	
	
	
	
	
	
	
	
	
	
	
	
	
	
	
	
	
	
	
	
	
	
	
	
	
	
	
	
	
	
	
	
	
	
	
	
	
	
	
	
	
	
	
	
	
	
	
	
	
	
	
	
	
	
	
	
	
	
	
	
	
	
	
	
	
	
	
	
	
	
	
	
	
	
	
	
	
	
	
	
	
	
	
	
	
	
	
	
	
	
	
	
	
	
	
	
	
	
	
	
	
	
	
	
	
	
	
	
	
	
	
	
	
	
	
	
	
	
	
	
	
	
	
	
	
	
	
	
	
	
	
	
	
	
	
	
	
	
	
	
	
	
	
	
	
	
	
	
	
	
	
	
	
	
	
	
	
	
	
	
	
	
	
	
	
	
	
	
	
	
	
	
	
	
	
	
	
	
	
	
	
	
	
	
	
	
	
	
	
	
	
	
	
	
	
	
	
	
	
	
	
	
	
	
	
	
	
	
	
	
	
	
	
	
	
	
	
	
	
	
	
	
	
	
	
	
	
	
	
	
	
	
	
	
	
	
	
	
	
	
	
	
	
	
	
	
	
	
	
	
	
	
	
	
	
	
	
	
	
	
	
	
	
	
	
	
	
	
	
	
	
	
	
	
	
	
	
	
	
	
	
	
	
	
	
	
	
	
	
	
	
	
	
	
	
	
	
	
	
	
	
	
	
	
	
	
	
	
	
	
	
	
	
	
	
	
	
	
	
	
	
	
	
	
	
	
	
	
	
	
	
	
	
	
	
	
	
	
	
	
	
	
	
	
	
	
	
	
	
	
	
	
	
	
	
	
	
	
	
	
	
	
	
	
	
	
	
	
	
	
	
	
	
	
	
	
	
	
	
	
	
	
	
	
	
	
	
	
	
	
	
	
	
	
	
	
	
	
	
	
	
	
	
	
	
	
	
	
	
	
	
	
	
	
	
	
	
	
	
	
	
	
	
	
	
	
	
	
	
	
	
	
	
	
	
	
	
	
	
	
	
	
	
	
	
	
	
	
	
	
	
	
	
	
	
	
	
	
	
	
	
	
	
	
	
	
	
	
	
	
	
	
	
	
	
	
	
	
	
	
	
	
	
	
	
	
	
	
	
	
	
	
	
	
	
	
	
	
	
	
	
	
	
	
	
	
	
	
	
	
	
	
	
	
	
	
	
	
	
	
	
	
	
	
	
	
	
	
	
	
	
	
	
	
	
	
	
	
	
	
	
	
	
	
	
	
	
	
	
	
	
	
	
	
	
	
	
	
	
	
	
	
	
	
	
	
	
	
	
	
	
	
	
	
	
	
	
	
	
	
	
	
	
	
	
	
	
	
	
	
	
	
	
	
	
	
	
	
	
	
	
	
	
	
	
	
	
	

	
	
	
	
	
	
	
	
	
	
	
	
	
	
	
	
	
	
	
	
	
	
	
	
	
	
	
	
	
	
	
	
	
	
	
	
	
	
	
	
	
	
	
	
	
	
	
	
	
	
	
	
	
	
	
	
	
	
	
	
	
	
	
	
	
	
	
	
	
	
	
	
	
	
	
	
	
	
	
	
	
	
	
	
	
	
	
	
	
	
	
	
	
	
	
	
	
	
	
	
	
	
	
	
	
	
	
	
	
	
	
	
	
	
	
	
	
	
	
	
	
	
	
	
	
	
	
	
	
	
	
	
	
	
	
	
	
	
	
	
	
	
	
	
	
	
	
	
	
	
	
	
	
	
	
	
	
	
	
	
	
	
	
	
	
	
	
	
	
	
	
	
	
	
	
	
	
	
	
	
	
	
	
	
	
	
	
	
	
	
	
	
	
	
	
	
	
	
	
	
	
	
	
	
	
	
	
	
	
	
	
	
	
	
	
	
	
	
	
	
	
	
	
	
	
	
	
	
	
	
	
	
	
	
	
	
	
	
	
	
	
	
	
	
	
	
	
	
	
	
	
	
	
	
	
	
	
	
	
	
	
	
	
	
	
	
	
	
	
	
	
	
	
	
	
	
	
	
	
	
	
	
	
	
	
	
	
	
	
	
	
	
	
	
	
	
	
	
	
	
	
	
	
	
	
	
	
	
	
	
	
	
	
	
	
	
	
	
	
	
	
	
	
	
	
	
	
	

	
	
	
	
	
	
	
	
	
	
	
	
	
	
	
	
	
	
	
	
	
	
	
	
	
	
	
	
	
	
	
	
	
	
	
	
	
	
	
	
	
	
	
	
	
	
	
	
	
	
	
	
	
	
	
	
	
	
	
	
	
	

	
	
	
	
	
	
	
	
	
	
	
	
	
	
	
	
	
	
	
	
	
	
	
	
	
	
	
	
	
	
	
	
	
	
	
	
	
	
	
	
	
	
	
	
	
	
	
	
	
	
	
	
	
	
	
	
	
	
	
	
	
	
	
	
	
	
	
	
	
	
	
	
	
	
	
	
	
	

		
		
	
		
		
	
		
		
	
		
		
	
		
		
	
		
		
	
		
		
	
		
		
	
		
		
	
		
		
	
		
		
	
		
		
	
		
		
	
		
		
	
		
		
	
		
		
	
		
		
	
		
		
	
		
		
	
		
		
	
		
		
	
		
		
	
		
		
	
		
		
	
		
		
	
		
		
	
		
		
	
		
		
	
		
		
	
		
		
	
		
		
	
		
		
	
		
		
	
		
		
	
		
		
	
		
		
	
		
		
	
		
		
	
		
		
	
		
		
	
		
		
	
		
		
	
		
		
	
		
		
	
		
		
	
		
		
	
		
		
	
		
		
	
		
		
	
		
		
	
		
		
	
		
		
	
		
		
	
		
		
	
		
		
	
		
		
	
		
		
	
		
		
	
		
		
	
		
		
	
		
		
	
		
		
	
		
		
		
		
		
		
		
		
		
		
	
		
		
		
		
		
		
		
		
	
			
		
			
		
			
		
			
		
			
		
			
		
			
		
			
		</defs>
  <sodipodi:namedview
     id="base"
     pagecolor="#ffffff"
     bordercolor="#666666"
     borderopacity="1.0"
     inkscape:pageopacity="0.0"
     inkscape:pageshadow="2"
     inkscape:zoom="3.959798"
     inkscape:cx="229.27444"
     inkscape:cy="8.516105"
     inkscape:document-units="mm"
     inkscape:current-layer="layer1"
     showgrid="false"
     inkscape:window-width="2560"
     inkscape:window-height="1377"
     inkscape:window-x="1912"
     inkscape:window-y="-8"
     inkscape:window-maximized="1" />
  <metadata
     id="metadata5">
    <rdf:RDF>
      <cc:Work
         rdf:about="">
        <dc:format>image/svg+xml</dc:format>
        <dc:type
           rdf:resource="http://purl.org/dc/dcmitype/StillImage" />
        <dc:title></dc:title>
      </cc:Work>
    </rdf:RDF>
  </metadata>
  <g
     inkscape:label="Layer 1"
     inkscape:groupmode="layer"
     id="layer1"
     transform="translate(5.498704,-5.7430768)">
    <polygon
       id="polygon6074"
       points=""
       style="fill:#878787"
       transform="matrix(0.26458333,0,0,0.26458333,-536.00992,23.229954)" />
    <polygon
       id="polygon8320"
       points=""
       style="fill:#878787"
       transform="matrix(0.26458333,0,0,0.26458333,-536.00992,23.229954)" />
    <g
       id="g15858"
       transform="translate(465.81299,-98.53764)">
      <path
         sodipodi:nodetypes="cccccccccccccccccccccccccccccccccccccccccccccccccccccccccccccccccccccccccccccccccccccccccccccccccccccccccccccccccccccccccccccccccccccccccccccccccccccccccccccccccccccccccccccccccccccccccccccccccccccccccccccccccccccccccccccccccccccccccccccccccccccccccccccccccccccccccccccccccccccccccccccccccccccccccccccccccccccccccccccccccccccccccccccccccccccc"
         id="path5302"
         d="m -453.16104,121.42907 -0.82021,0.21167 c -0.13229,0.0794 -0.23813,0.15875 -0.37042,0.23813 l -0.635,0.1852 -0.21167,0.0265 -0.21166,0.0794 -0.44979,0.42333 -0.23813,0.15875 -1.00542,0.37042 -1.48166,0.29104 -0.50271,0.23812 -0.50271,0.0265 -0.42333,-0.10583 0.0794,0.23812 0.55563,-0.0264 1.48166,-0.29105 1.64042,-0.58208 0.50271,-0.26458 0.26458,-0.0529 1.00542,-0.60854 1.42875,-0.44979 0.21167,-0.0265 0.1852,-0.15875 0.55563,-0.26458 v -0.1323 l -0.26458,0.0529 -0.79375,0.42333 m 14.71079,-6.58819 -0.42333,-0.0529 -0.3175,0.0529 0.0529,0.21167 v 0.13229 l -0.29104,-0.0529 -0.23812,-0.10583 -0.18521,0.0529 -0.13229,0.42334 -0.29105,-0.10584 -0.29104,0.15875 -0.58208,0.50271 -0.58208,0.26459 -0.3175,0.0794 -0.1323,-0.10583 -0.0794,-0.21167 -0.50271,-0.76729 -0.21167,-0.0794 -0.15875,0.23813 -0.10583,0.39687 -0.0265,0.34396 -0.58208,-0.60854 -0.21167,-0.13229 -0.13229,0.13229 -0.0794,0.21167 v 0.10583 l -0.18521,0.0529 -0.42334,0.23812 h -0.1852 l -0.0794,-0.15875 -0.0794,-0.23812 -0.1323,-0.13229 -0.23812,0.10583 0.15875,0.39687 -0.23813,0.23813 -0.39687,0.18521 -0.84667,0.68791 -0.26458,0.29105 -0.0529,0.23812 0.0265,0.23813 -0.23812,0.1852 -0.37042,0.1323 -0.3175,0.0794 -0.34396,-0.0529 -0.3175,-0.13229 -0.29104,-0.0529 -0.21167,0.15875 -0.13229,-0.10584 -0.15875,-0.0529 h -0.15875 l -0.18521,0.0264 0.15875,-0.26458 0.29104,-0.26458 0.3175,-0.21167 0.39688,-0.13229 0.10583,-0.10583 0.21167,-0.26459 0.0529,-0.0794 0.10583,-0.23813 0.0794,-0.10583 0.0794,-0.0265 0.18521,0.0265 0.0794,-0.0265 0.42334,-0.37042 0.13229,-0.0529 0.0265,0.13229 0.13229,0.23812 0.13229,0.15875 0.0794,-0.1852 -0.0265,-0.26459 -0.0529,-0.21166 0.0265,-0.18521 0.18521,-0.23813 0.13229,-0.0529 h 0.3175 l 0.15875,-0.0794 -0.13229,-0.0529 -0.10584,-0.0794 -0.10583,-0.10583 -0.0794,-0.15875 1.05834,-1.00542 0.60854,-0.37042 0.23812,0.37042 0.21167,-0.0794 0.23813,-0.15875 0.21166,-0.21166 0.0794,-0.23813 -0.0794,-0.18521 -0.18521,-0.10583 -0.23812,-0.0265 -0.21167,0.0265 -0.82021,0.42333 -0.23812,0.18521 -0.37042,0.44979 -0.23812,0.18521 -0.68792,0.18521 -0.34396,0.15875 -0.29104,0.50271 -0.89958,0.39687 -0.97896,0.9525 -0.34396,0.1323 -1.95792,0.39687 -2.4077,-0.13229 h -2.61938 l 0.0794,0.21167 -0.0529,0.13229 -0.13229,0.0529 h -0.18521 l 0.0794,-0.42333 -0.21166,-0.0794 -0.34396,0.10583 -0.26458,0.13229 0.0794,0.34396 -0.18521,0.3175 -0.29104,0.21167 -0.68792,0.21166 h -0.15875 l -0.13229,-0.0529 -0.29104,-0.18521 -0.13229,-0.0265 -0.3175,-0.0529 -1.32292,-0.50271 h -0.3175 l -0.13229,0.15875 0.26458,0.37042 0.21167,-0.29104 0.23813,0.10583 0.13229,0.3175 -0.0529,0.26459 h -0.18521 l -0.26458,-0.1323 -0.26458,-0.0529 -0.21167,0.18521 -0.18521,-0.15875 -0.13229,-0.1323 0.15875,-0.37041 -0.26458,-0.26459 h -0.39688 l -0.21167,0.37042 0.0529,0.21167 0.23813,0.34396 0.0265,0.15875 -0.13229,0.0794 -0.39687,-0.21167 -0.21167,-0.0264 0.0529,-0.10584 0.0529,-0.0529 -0.8202,-0.21167 -0.84667,0.23812 -0.52917,0.635 0.21167,1.00542 -0.21167,0.0265 -0.26458,-0.29104 -0.29104,-0.39688 -0.29104,-0.3175 -0.18521,0.15875 -0.15875,0.23813 -0.0265,0.21166 0.50271,0.21167 0.0529,0.23813 -0.0794,0.23812 -0.18521,0.10583 -0.10583,-0.13229 -0.10584,-0.26458 -0.15875,-0.21167 -0.23812,0.0265 -0.10583,0.18521 0.0529,0.52917 -0.0529,0.23812 -0.34396,-0.26458 -0.50271,-0.13229 -0.44979,0.10583 -0.15875,0.44979 -0.71438,-0.15875 -0.42333,0.26458 -0.66146,1.27 -0.0794,0.10584 -0.15875,0.10583 -0.0794,0.0794 -0.0265,0.0529 -0.0529,0.15875 -0.0265,0.0529 -0.42334,0.55562 -0.0794,0.15875 0.0529,0.47625 0.44979,0.50271 -0.0794,0.39688 h 0.23813 l 0.79375,-0.15875 0.0794,-0.0529 0.18521,-0.15875 0.13229,-0.0529 h 0.18521 l 0.13229,0.0794 h 0.13229 l 0.15875,-0.21167 -0.1852,-0.26458 -0.10584,-0.0794 -0.13229,-0.0529 v -0.13229 l 0.42333,-0.3175 0.23813,-0.0794 0.34396,-0.0265 0.3175,0.0529 0.42333,0.13229 0.29104,0.18521 -0.0265,0.21167 0.0794,0.13229 0.0265,0.0529 v 0.0794 l -0.29104,0.0265 -2.06375,0.76729 -0.29105,0.18521 0.50271,0.10583 2.16959,-0.66146 h 2.77812 v -0.13229 l -0.42333,-0.0794 -1.16417,0.13229 -0.3175,-0.18521 0.0794,-0.3175 0.42333,-0.10583 h 0.84667 l 1.66687,-0.55563 1.56104,-0.13229 0.3175,-0.13229 0.58209,-0.34396 0.97895,-0.21167 0.15875,-0.0794 0.21167,-0.23813 0.13229,-0.0794 h 0.26459 l 0.68791,0.21166 0.34396,0.0529 0.21167,-0.0794 v -0.21167 l -0.0265,-0.23813 0.0794,-0.1852 0.18521,-0.0529 0.18521,0.0529 0.18521,0.0794 0.18521,0.0529 0.18521,-0.0265 0.66145,-0.15875 0.18521,-0.18521 0.15875,-0.0529 1.00542,-0.0529 0.3175,-0.10584 0.39687,-0.23812 0.18521,-0.0265 0.34396,0.23813 0.18521,0.0529 0.3175,-0.0529 0.23812,-0.18521 0.0794,-0.26459 -0.15875,-0.3175 0.55562,0.0265 1.7198,-0.23812 0.37041,0.0265 -0.15875,0.15875 -0.29104,0.13229 -0.76729,0.18521 -0.10583,0.0264 -0.0529,0.0529 0.0265,0.10583 0.10583,0.0794 0.0529,-0.0265 0.0794,-0.0794 0.0794,-0.0529 h 0.15875 l 1.5875,-0.66146 0.97896,-0.18521 0.60854,-0.37041 0.18521,-0.15875 v -0.18521 l -0.10584,-0.18521 -0.0265,-0.21167 0.0529,-0.15875 0.18521,-0.0794 0.39687,0.0529 0.18521,0.1323 v 0.21166 l -0.18521,0.3175 0.29105,-0.0529 0.52916,-0.3175 0.52917,-0.10584 0.84667,-0.37041 1.42875,-0.97896 0.9525,-0.26459 1.11125,-0.55562 1.03187,-0.26458 1.87854,-1.11125 0.26459,-0.10584 0.21166,-0.13229 0.10584,-0.18521 -0.37042,0.0529 m -21.08729,8.5725 v -0.0529 l 0.0265,-0.0265 h 0.0794 v -0.13229 l -0.29104,0.10584 -0.9525,0.0265 -0.15875,0.0265 -0.10583,0.0529 -0.23813,0.18521 -0.37042,0.13229 -0.10583,0.0794 -0.21167,0.10584 -2.2225,0.37041 0.34396,0.23813 2.19604,-0.44979 0.89959,-0.47625 1.16416,-0.13229 -0.0529,-0.0529"
         inkscape:connector-curvature="0"
         style="fill:#878787;stroke-width:0.26458332" />
      <text
         id="text15853"
         y="128.46004"
         x="-471.24777"
         style="font-style:normal;font-weight:normal;font-size:6.63769197px;line-height:1.25;font-family:sans-serif;letter-spacing:0px;word-spacing:0px;fill:#000000;fill-opacity:1;stroke:none;stroke-width:0.26458332"
         xml:space="preserve"><tspan
           style="font-style:normal;font-variant:normal;font-weight:normal;font-stretch:normal;font-size:3.31884599px;font-family:Castellar;-inkscape-font-specification:Castellar;stroke-width:0.26458332"
           y="128.46004"
           x="-471.24777"
           id="tspan15851"
           sodipodi:role="line">Long Island, NY</tspan></text>
    </g>
  </g>
</svg>
